<svg width="269" height="81" viewBox="0 0 269 81" fill="none" xmlns="http://www.w3.org/2000/svg">
<path d="M261.734 0.00181204C258.427 0.0103475 253.753 0.0172447 251.375 0.0371121C249.001 0.0399494 246.544 0.148308 245.931 0.257737C244.485 0.54561 241.99 1.88503 240.518 3.22453C237.384 5.99871 235.364 10.1303 235.306 13.8201C235.232 19.2759 237.957 22.9998 243.329 24.7495C245.716 25.5167 247.777 25.7951 251.864 25.8681L255.297 25.9302L256.069 25.2974C257.439 24.2042 261.145 19.7033 260.958 19.3794C260.921 19.3146 258.236 19.2524 254.986 19.2575C250.239 19.2632 248.94 19.2072 248.383 18.9669C246.837 18.3336 244.889 15.9315 244.537 14.2491C244.006 11.734 246.18 7.84454 248.673 6.85151C249.022 6.70769 261.696 6.54456 262.173 6.67233C262.292 6.70427 264.96 3.96928 266.024 2.72128C267.927 0.456693 268.211 0.0765727 267.969 0.029718C267.849 -0.00222443 265.057 -0.00216017 261.734 0.00181204Z" fill="white"/>
<path d="M232.069 0.0119601C229.713 0.0193606 227.771 0.0465642 227.727 0.071498C227.576 0.158766 218.402 25.6091 218.477 25.7387C218.552 25.8683 227.416 25.9618 227.649 25.8417C227.697 25.7997 229.74 20.2872 232.179 13.5667C234.614 6.8633 236.725 1.09532 236.872 0.751374C237.091 0.207634 237.075 0.130387 236.747 0.0607164C236.538 0.0229881 234.43 -0.0124705 232.069 0.0119601Z" fill="white"/>
<path d="M212.867 0.0153259C204.668 0.0270905 200.741 0.106432 200.426 0.259375C200.172 0.391948 199.04 1.54901 197.902 2.86847C195.713 5.38484 195.009 6.3096 195.15 6.5301C195.188 6.59488 197.214 6.66317 199.66 6.66156C202.106 6.65994 204.112 6.66802 204.124 6.68962C204.137 6.71121 202.589 10.9876 200.689 16.1732C198.801 21.3804 197.283 25.6829 197.32 25.7477C197.42 25.9204 206.157 25.9434 206.459 25.7688C206.593 25.677 208.07 21.8015 210.088 16.2458C211.962 11.0896 213.565 6.80994 213.652 6.76008C213.738 6.71021 215.065 6.6641 216.613 6.67731C219.076 6.68026 219.492 6.62737 220.041 6.28164C220.819 5.76015 223.256 2.9999 224.287 1.46907C225.112 0.229867 225.196 0.0516623 225.004 0.0184972C224.919 -0.00431885 219.479 -0.00174492 212.867 0.0153259Z" fill="white"/>
<path d="M182.055 0.0101225C174.57 0.0125209 168.39 0.0539582 168.303 0.103826C168.131 0.203561 159.093 24.942 159.015 25.5052C158.961 25.9106 158.743 25.9069 179.977 25.8835L183.462 25.8866L184.705 24.7228C186.626 22.9375 187.929 21.4797 188.567 20.3913C188.876 19.8534 189.115 19.3698 189.09 19.3266C189.065 19.2835 184.968 19.2445 179.999 19.2635C175.033 19.2655 170.877 19.2469 170.77 19.2366C170.651 19.2046 170.769 18.7619 171.11 17.831C171.379 17.0999 171.642 16.4586 171.702 16.4382C171.745 16.4132 173.888 16.3851 176.476 16.403C179.05 16.3993 181.254 16.3508 181.345 16.2839C181.841 15.9972 188.14 9.92756 188.035 9.84453C187.925 9.77852 186.142 9.75708 177.618 9.75483C177.032 9.76208 176.759 9.96277 174.764 11.8922C173.551 13.0821 172.551 14.019 172.539 13.9974C172.481 13.8724 175.162 6.79679 175.287 6.73902C175.373 6.68915 178.761 6.64778 182.811 6.65603C186.989 6.66217 190.374 6.56514 190.641 6.45416C191.218 6.20727 193.409 3.81924 194.766 1.95604C195.769 0.600069 196.038 0.0700182 195.791 0.0401936C195.706 0.0173776 189.539 0.00772415 182.055 0.0101225Z" fill="white"/>
<path d="M154.67 0.0279253C148.995 0.0222679 143.973 0.100298 143.492 0.19058C140.318 0.727376 136.661 3.54409 134.51 7.14737C133.401 8.96771 132.53 11.9468 132.501 13.8922C132.442 18.2021 134.171 21.4216 137.689 23.5507C138.761 24.1846 139.338 24.4124 141.506 24.9749C143.209 25.4313 144.599 25.6941 145.675 25.7636C147.448 25.8918 155.594 25.939 155.823 25.8359C155.991 25.7532 161.965 9.99565 161.878 9.84449C161.853 9.80131 159.236 9.75729 156.08 9.75124C152.248 9.74665 150.237 9.82829 150.029 9.99158C149.462 10.4054 147.887 12.265 146.5 14.102C145.424 15.5294 145.181 15.9573 145.36 16.0416C145.487 16.1121 146.662 16.1533 147.975 16.1583C149.292 16.1462 150.404 16.1521 150.438 16.1612C150.558 16.1932 150.072 17.87 149.73 18.5999L149.428 19.2491L147.876 19.2529C146.922 19.2711 146.055 19.1667 145.622 19.014C144.033 18.4056 142.105 16.0638 141.741 14.2871C141.472 12.9739 141.788 11.5251 142.696 9.90671C143.538 8.39837 144.34 7.51802 145.37 7.00932C146.086 6.65357 146.125 6.64567 156.56 6.66724L159.408 6.66384L160.543 5.56243C161.769 4.39412 165.113 0.56285 165.2 0.239278C165.227 0.137097 165.199 0.0382572 165.126 0.0370345C165.041 0.0142185 160.35 0.0165526 154.67 0.0279253Z" fill="white"/>
<path d="M127.308 32.1953C57.4129 32.2127 0.261935 32.2863 0.32427 32.3943C0.461406 32.6318 3.85854 34.3269 5.74065 35.0685C8.04729 35.9969 12.6034 37.1812 14.9552 37.4645C17.1661 37.7284 18.1666 37.7409 49.6563 37.7275C62.3625 37.7189 72.7712 37.7699 72.7961 37.8131C72.8381 37.8609 71.9647 40.7116 70.876 44.1617C69.7748 47.5902 68.906 50.4239 68.9185 50.4455C68.9854 50.5364 180.189 50.5082 180.34 50.421C180.41 50.3665 181.373 47.5216 182.452 44.1056C183.553 40.6771 184.495 37.8446 184.564 37.7902C184.646 37.7574 196.591 37.7274 211.141 37.7198C225.686 37.7293 238.359 37.6388 239.319 37.5309C243.115 37.1243 247.334 35.9551 251.088 34.2776C253.285 33.2967 254.991 32.3118 254.646 32.2376C254.505 32.2181 197.198 32.1949 127.308 32.1953ZM178.577 36.77C178.746 37.162 178.747 37.564 178.574 38.2112L178.332 39.1138L177.186 39.0988C176.554 39.0753 175.895 39.0813 175.745 39.0959C175.556 39.1184 175.46 39.0013 175.451 38.7617C175.455 38.5436 175.356 38.2982 175.217 38.206C174.866 37.9478 170.294 37.9821 169.785 38.2472C169.254 38.5248 169.035 39.3423 169.424 39.5926C169.581 39.6893 171.067 39.7956 172.705 39.8146C174.321 39.846 176.043 39.9605 176.507 40.0667C177.227 40.2413 177.379 40.3551 177.622 40.8767C177.896 41.4244 177.893 41.5698 177.405 43.1183C176.948 44.6203 176.859 44.8155 176.204 45.3519C175.241 46.1526 174.324 46.3082 170.376 46.3273C164.692 46.3557 164.046 46.1096 164.475 43.9614L164.708 42.8192L165.491 42.8281C165.927 42.8354 166.581 42.8464 166.932 42.8309C167.787 42.841 167.787 42.841 167.779 43.3498C167.769 43.6576 167.886 43.8349 168.141 43.9033C168.823 44.0859 173.455 44.0312 173.839 43.8238C174.089 43.7083 174.252 43.4416 174.305 43.1089C174.377 42.6354 174.327 42.549 173.813 42.3565C173.498 42.2357 171.888 42.1145 170.25 42.0955C168.6 42.055 167.053 41.9691 166.798 41.9006C165.674 41.5994 165.479 40.2148 166.311 38.3385C167.301 36.1398 168.093 35.8409 173.286 35.8085C177.199 35.7803 178.244 35.9689 178.577 36.77ZM162.266 36.7436C162.565 37.2619 162.536 38.4589 162.207 39.2103C162.065 39.5372 161.829 39.6017 160.55 39.6058L159.036 39.6017L159.043 39.1656C159.042 38.4899 158.518 38.3314 156.218 38.3355C153.75 38.3495 153.007 38.5338 152.452 39.2429C151.949 39.8931 151.142 42.8347 151.354 43.2018C151.591 43.6121 152.738 43.8281 154.436 43.8267C155.681 43.8135 157.385 43.6497 157.439 43.518C157.439 43.518 157.628 43.2218 157.86 42.9007C158.259 42.2958 158.315 42.2925 159.761 42.2783L161.241 42.2733L161.026 43.0737C160.688 44.3339 160.177 45.0181 159.179 45.6087C158.056 46.2569 157.096 46.3648 152.854 46.3234C149.378 46.2863 148.619 46.1196 148.099 45.2683C147.641 44.525 147.702 43.6835 148.451 41.3653C150.086 36.218 150.846 35.7646 157.714 35.816C161.028 35.8461 161.842 36.0095 162.266 36.7436ZM145.905 36.1562C145.873 36.2754 145.133 38.5596 144.288 41.2354C143.124 44.8296 142.654 46.109 142.473 46.1701C142.138 46.2629 139.739 46.2225 139.694 46.1191C139.686 46.0805 140.279 44.1403 141.023 41.8391C141.772 39.5209 142.49 37.2492 142.614 36.7894L142.859 35.9424L144.288 35.9237C146.024 35.9144 145.973 35.9007 145.905 36.1562ZM138.869 37.2097L138.54 38.4358L136.406 38.4299L134.26 38.4023L133.53 40.5797C133.138 41.7706 132.54 43.5268 132.212 44.4793L131.613 46.2355L130.339 46.2226C128.522 46.1921 128.551 46.2182 128.926 45.2965C129.096 44.8674 129.651 43.1361 130.175 41.4513L131.104 38.3963L129.217 38.4201C128.173 38.4325 127.212 38.412 127.109 38.3847C126.956 38.3436 126.984 37.9677 127.207 37.1332L127.522 35.9582L128.309 35.95C133.151 35.9331 138.976 35.9242 139.078 35.9516C139.151 35.9528 139.051 36.5285 138.869 37.2097ZM123.244 36.8014C123.398 37.0435 123.502 37.4729 123.485 37.7421C123.485 38.0158 123.461 38.3746 123.45 38.554C123.409 39.182 121.846 43.6548 121.454 44.2983C120.883 45.2039 119.884 45.8671 118.742 46.1088C118.219 46.224 116.275 46.3239 114.466 46.332C107.961 46.3594 107.479 46.0476 108.496 42.2499C109.476 38.6611 110.272 37.1221 111.545 36.4592C112.356 36.0195 113.971 35.8499 117.153 35.8265C120.99 35.8141 120.716 35.8137 121.934 36.1037C122.756 36.3057 123.028 36.4514 123.244 36.8014ZM106.165 36.9161C105.532 37.4401 104.218 38.5299 103.212 39.3555C102.206 40.1811 101.372 40.9069 101.35 40.9921C101.331 41.0602 102.005 42.2262 102.846 43.5833C103.704 44.9449 104.309 46.0927 104.222 46.1425C104.136 46.1924 103.379 46.2267 102.562 46.2087C101.741 46.2077 100.954 46.2158 100.804 46.2304C100.637 46.2404 100.135 45.5948 99.4431 44.4968C98.8651 43.5206 98.3311 42.7204 98.263 42.7022C98.2119 42.6885 97.2116 43.4243 96.0544 44.3372C94.8755 45.2625 93.8615 46.0495 93.7706 46.1164C93.7013 46.1708 92.7597 46.2106 91.6819 46.2138L89.7274 46.2194L90.1741 45.8463C90.4254 45.6581 91.9077 44.4856 93.4981 43.2507L96.3968 41.0157L94.8563 38.5221C93.8204 36.8025 93.4102 36.0173 93.6033 35.9778C93.7408 35.9416 94.6221 35.9222 95.567 35.9381L97.2773 35.9583L98.1929 37.7186C98.7028 38.6766 99.1641 39.4756 99.2322 39.4938C99.2833 39.5075 100.319 38.7081 101.511 37.7317C103.485 36.0884 103.744 35.9388 104.42 35.9373C104.834 35.9571 105.532 35.9432 105.994 35.921C107.333 35.8965 107.336 35.9522 106.165 36.9161ZM89.4769 37.2085C89.1499 38.0882 88.9565 38.4015 88.7384 38.3978C88.5715 38.4078 86.8395 38.4001 84.885 38.4057C82.935 38.3943 81.2064 38.4422 81.0814 38.4999C80.9348 38.5702 80.7323 38.9174 80.6364 39.2751C80.5223 39.7008 80.5436 39.9621 80.6798 39.9986C80.7866 40.0089 82.4969 40.0291 84.4515 40.0235L88.0096 40.0278L87.8143 40.9611C87.7115 41.4811 87.5281 41.9613 87.4201 42.0237C87.3121 42.086 85.6346 42.1476 83.6846 42.1362C81.7301 42.1418 80.0231 42.1772 79.9026 42.2179C79.5073 42.331 79.2161 43.622 79.5567 43.7133C79.693 43.7498 81.493 43.7758 83.5373 43.7759C85.5645 43.7716 87.2794 43.7747 87.3476 43.793C87.3987 43.8067 87.3083 44.3483 87.1303 45.0125L86.8155 46.1876L86.0454 46.2003C85.6093 46.1929 83.0688 46.2058 80.3828 46.2162L75.4902 46.2194L75.854 44.9297C76.0627 44.219 76.773 41.9087 77.4672 39.7948L78.6995 35.9451L84.2678 35.9405C87.3342 35.9407 89.8487 35.9574 89.8782 35.9835C89.8906 36.0051 89.706 36.558 89.4769 37.2085Z" fill="white"/>
<path d="M116.425 38.3327C113.11 38.3752 112.669 38.6586 111.945 41.2937C111.429 43.2181 111.481 43.4329 112.568 43.6692C113.53 43.8907 117.158 43.8406 117.812 43.5779C118.72 43.2553 119.186 42.5403 119.642 40.8373C120.276 38.4701 120.065 38.3041 116.425 38.3327Z" fill="white"/>
<path d="M126.19 0.0611119C124.964 0.00626572 104.252 -0.0128479 104.127 0.0449234C104.024 0.0902277 94.671 25.73 94.7209 25.8164C94.7662 25.9198 103.82 25.9182 103.993 25.8184C104.058 25.781 104.853 23.7672 105.736 21.3572C106.978 17.9482 107.392 16.9458 107.629 16.8814C107.848 16.8124 109.231 17.9861 112.861 21.3317L117.81 25.8883L122.681 25.8976C125.379 25.9088 127.723 25.8798 127.912 25.8573C128.156 25.8314 127.077 24.6115 123.525 20.9765L118.799 16.1327L121.11 15.8209C123.913 15.4404 125.59 14.904 127.361 13.8818C129.939 12.3641 131.172 10.285 131.159 7.47071C131.132 2.73593 129.426 0.179691 126.19 0.0611119ZM121.628 7.3446C121.791 8.10004 121.381 9.35904 120.915 9.59925C120.703 9.70689 118.85 9.81256 116.806 9.81239C114.761 9.81221 112.952 9.82027 112.79 9.81326C112.64 9.82785 111.611 10.7386 110.532 11.8367C109.431 12.9472 108.523 13.8172 108.51 13.7956C108.46 13.7092 111.038 6.67889 111.141 6.63359C111.352 6.52595 120.769 6.60309 121.122 6.71595C121.372 6.80143 121.561 7.05264 121.628 7.3446Z" fill="white"/>
<path d="M87.3244 0.0148425C79.8401 0.0172409 73.7027 0.0337441 73.6811 0.046211C73.5515 0.121012 64.5862 24.8607 64.5095 25.3512L64.4192 25.8928L75.4616 25.8947C81.5433 25.8815 87.0344 25.8926 87.6761 25.8821C88.805 25.8925 88.8482 25.8676 89.934 24.8808C91.5666 23.42 93.393 21.3722 94.0177 20.3349C94.317 19.831 94.547 19.3816 94.522 19.3384C94.4971 19.2952 90.4949 19.245 85.6364 19.2573C80.7654 19.2481 76.6041 19.2465 76.3861 19.2428C76.0011 19.2492 75.9932 19.2106 76.3156 18.3478C77.014 16.4907 77.0493 16.4271 77.6955 16.3995C78.0249 16.3965 80.185 16.3729 82.52 16.378L86.7494 16.3978L90.1786 13.1368C92.0819 11.3469 93.6339 9.84623 93.643 9.81217C93.6613 9.74405 83.0936 9.74163 82.6392 9.80241C82.4677 9.82946 81.3092 10.815 80.079 12.0003L77.8618 14.1442L78.2149 13.2349C78.4029 12.7377 79.0171 11.0587 79.5777 9.51141C80.1554 7.96868 80.6259 6.68931 80.6646 6.6814C80.6861 6.66894 84.1035 6.65372 88.2647 6.65529C95.1289 6.65102 95.8865 6.61672 96.3582 6.28679C97.3539 5.56795 101.113 1.00805 101.318 0.241698C101.341 0.156548 101.257 0.0610481 101.15 0.0506989C101.031 0.0187565 94.8086 0.0124442 87.3244 0.0148425Z" fill="white"/>
<path d="M210.022 41.4165L187.112 41.4289L186.613 43.0841C186.151 44.6032 186.154 44.7315 186.449 44.7193C186.633 44.7139 194.776 44.7055 204.54 44.7115C214.303 44.7175 222.99 44.6541 223.83 44.5869C226.412 44.3481 230.162 43.1624 232.244 41.9315C232.706 41.6356 233.061 41.4021 233.022 41.41C232.971 41.3963 222.622 41.3976 210.022 41.4165Z" fill="white"/>
<path d="M66.0013 0.0169115C63.6663 0.0118451 61.7027 0.0515156 61.6811 0.0639825C61.6379 0.0889163 60.4506 3.29359 59.0252 7.1828C57.6168 11.0766 56.4342 14.2642 56.4126 14.2767C56.3864 14.3062 55.7474 11.105 55.0048 7.20071C54.2667 3.27937 53.6107 0.073629 53.5596 0.0599394C53.3212 -0.0039454 42.3083 0.0203504 42.0379 0.0756763C41.8016 0.140129 40.8538 2.58757 37.1004 12.9168C34.5401 19.9517 32.4798 25.7334 32.5001 25.7936C32.575 25.9232 41.522 25.9112 41.738 25.7865C41.8243 25.7367 43.0286 22.5365 44.4188 18.7109C45.8135 14.8682 46.9654 11.7271 47.0086 11.7021C47.0348 11.6727 47.6488 14.8306 48.371 18.6747C49.0887 22.5358 49.7231 25.7541 49.7651 25.8018C49.8366 25.8757 61.4127 25.9293 61.5423 25.8545C61.6071 25.8171 70.5837 1.17173 70.7342 0.609736C70.8255 0.269134 70.7769 0.110077 70.5679 0.0723487C70.3976 0.0267167 68.3409 0.00494778 66.0013 0.0169115Z" fill="white"/>
<path d="M25.2304 0.00540643C17.7245 0.0202715 11.5224 0.0741755 11.453 0.128606C11.3235 0.203408 1.95635 25.6933 2.03116 25.8228C2.09683 25.9865 26.309 25.8848 26.6624 25.724C27.8135 25.1746 32.3648 20.0421 32.2645 19.3946C32.2532 19.3003 28.0887 19.2431 22.995 19.2472L13.7232 19.2452L14.0763 18.3359C14.2689 17.8217 14.5149 17.1758 14.6436 16.9L14.8532 16.3903L19.6515 16.3983L24.4328 16.4017L27.8961 13.1498C29.7994 11.36 31.3298 9.87175 31.3049 9.82857C31.297 9.78994 28.8042 9.76084 25.7934 9.75723C22.7781 9.77066 20.2807 9.75858 20.2466 9.74946C20.1956 9.73577 19.1916 10.6897 17.9784 11.8796C16.7697 13.0525 15.7703 13.9894 15.7408 13.9632C15.6706 13.8166 18.3161 6.80454 18.4842 6.72183C18.5706 6.67197 21.9709 6.65219 26.0379 6.665C33.0043 6.68811 33.4665 6.66595 34.0292 6.26912C35.4908 5.31007 39.6242 0.102135 39.0099 0.0105438C38.9418 -0.00770902 32.7317 0.00757148 25.2304 0.00540643Z" fill="white"/>
<path d="M45.3857 41.4015C33.2825 41.4074 23.0566 41.4236 22.65 41.4424L21.9141 41.4642L23.1001 42.1471C24.6254 42.9939 29.1904 44.4178 30.9539 44.5801C32.2905 44.7009 66.4002 44.7872 66.6377 44.65C66.7195 44.6172 67.044 43.8828 67.3449 43.0325C67.8462 41.7066 67.8839 41.4977 67.6409 41.4508C67.5047 41.4143 57.4889 41.3955 45.3857 41.4015Z" fill="white"/>
<path d="M124.629 65.3477L126.455 70.9669H132.363L127.583 74.4398L129.409 80.059L124.629 76.5861L119.849 80.059L121.675 74.4398L116.895 70.9669H122.803L124.629 65.3477Z" fill="white"/>
<path d="M124.629 65.3477L126.455 70.9669H132.363L127.583 74.4398L129.409 80.059L124.629 76.5861L119.849 80.059L121.675 74.4398L116.895 70.9669H122.803L124.629 65.3477Z" fill="#B28B5F"/>
<path d="M158.281 59.6621L159.647 63.8651H164.066L160.491 66.4627L161.856 70.6657L158.281 68.0681L154.706 70.6657L156.071 66.4627L152.496 63.8651H156.915L158.281 59.6621Z" fill="white"/>
<path d="M158.281 59.6621L159.647 63.8651H164.066L160.491 66.4627L161.856 70.6657L158.281 68.0681L154.706 70.6657L156.071 66.4627L152.496 63.8651H156.915L158.281 59.6621Z" fill="#B28B5F"/>
<path d="M90.9763 59.6621L92.342 63.8651H96.7613L93.186 66.4627L94.5516 70.6657L90.9763 68.0681L87.4011 70.6657L88.7667 66.4627L85.1914 63.8651H89.6107L90.9763 59.6621Z" fill="white"/>
<path d="M90.9763 59.6621L92.342 63.8651H96.7613L93.186 66.4627L94.5516 70.6657L90.9763 68.0681L87.4011 70.6657L88.7667 66.4627L85.1914 63.8651H89.6107L90.9763 59.6621Z" fill="#B28B5F"/>
</svg>
