<svg width="186" height="35" viewBox="0 0 186 35" fill="none" xmlns="http://www.w3.org/2000/svg">
<g clip-path="url(#clip0_14594_44488)">
<path d="M180.858 0.0481273C178.574 0.054026 175.343 0.0587927 173.7 0.0725228C172.059 0.0744837 170.361 0.149369 169.938 0.224994C168.938 0.423941 167.214 1.3496 166.197 2.27532C164.031 4.19252 162.635 7.04779 162.595 9.5978C162.543 13.3683 164.427 15.9418 168.14 17.151C169.789 17.6812 171.213 17.8736 174.038 17.9241L176.41 17.967L176.944 17.5296C177.89 16.7742 180.452 13.6636 180.323 13.4398C180.297 13.395 178.442 13.352 176.195 13.3556C172.915 13.3595 172.017 13.3207 171.632 13.1547C170.564 12.717 169.217 11.057 168.974 9.89427C168.607 8.15612 170.109 5.46816 171.832 4.78189C172.073 4.68249 180.833 4.56975 181.162 4.65805C181.245 4.68013 183.088 2.79001 183.824 1.92753C185.139 0.362491 185.335 0.0997936 185.167 0.0674128C185.085 0.0453377 183.155 0.0453821 180.858 0.0481273Z" fill="white"/>
<path d="M160.359 0.054394C158.73 0.0595085 157.388 0.0783086 157.358 0.0955401C157.254 0.15585 150.913 17.7443 150.965 17.8339C151.017 17.9234 157.143 17.988 157.304 17.905C157.337 17.876 158.749 14.0664 160.435 9.42195C162.117 4.78929 163.576 0.803091 163.678 0.565396C163.829 0.189622 163.818 0.136238 163.591 0.0880891C163.447 0.0620154 161.99 0.0375103 160.359 0.054394Z" fill="white"/>
<path d="M147.088 0.0561168C141.422 0.0642472 138.708 0.119079 138.49 0.224777C138.314 0.316396 137.532 1.11603 136.746 2.0279C135.233 3.76694 134.746 4.40603 134.844 4.55841C134.87 4.60318 136.27 4.65038 137.961 4.64926C139.651 4.64815 141.037 4.65373 141.046 4.66865C141.055 4.68357 139.985 7.63891 138.672 11.2226C137.367 14.8213 136.318 17.7947 136.344 17.8395C136.413 17.9589 142.451 17.9747 142.66 17.8541C142.752 17.7906 143.773 15.1123 145.167 11.2728C146.463 7.70946 147.571 4.75181 147.63 4.71735C147.69 4.68288 148.607 4.65102 149.677 4.66014C151.379 4.66218 151.666 4.62564 152.046 4.38671C152.584 4.02631 154.268 2.11873 154.98 1.06078C155.55 0.204384 155.609 0.0812285 155.476 0.0583084C155.417 0.0425405 151.658 0.0443193 147.088 0.0561168Z" fill="white"/>
<path d="M125.795 0.052981C120.622 0.0546385 116.351 0.0832754 116.291 0.117738C116.172 0.186664 109.926 17.2832 109.872 17.6724C109.835 17.9525 109.684 17.95 124.359 17.9338L126.768 17.9359L127.626 17.1317C128.954 15.8979 129.854 14.8904 130.295 14.1382C130.509 13.7664 130.674 13.4323 130.657 13.4024C130.639 13.3726 127.808 13.3457 124.374 13.3588C120.942 13.3602 118.07 13.3473 117.996 13.3402C117.913 13.3181 117.995 13.0121 118.231 12.3688C118.417 11.8636 118.599 11.4203 118.64 11.4063C118.67 11.389 120.151 11.3696 121.939 11.3819C123.718 11.3794 125.241 11.3459 125.304 11.2996C125.647 11.1015 130 6.90682 129.927 6.84944C129.851 6.80383 128.619 6.78901 122.729 6.78745C122.324 6.79246 122.135 6.93116 120.756 8.26458C119.918 9.08691 119.227 9.73439 119.218 9.71946C119.178 9.63308 121.031 4.74318 121.117 4.70325C121.177 4.66879 123.518 4.6402 126.317 4.6459C129.205 4.65014 131.544 4.58309 131.728 4.50639C132.127 4.33577 133.642 2.68542 134.58 1.39778C135.272 0.460687 135.459 0.0943743 135.288 0.0737628C135.229 0.0579949 130.967 0.0513235 125.795 0.052981Z" fill="white"/>
<path d="M106.872 0.0643948C102.95 0.060485 99.4795 0.114411 99.1474 0.176804C96.954 0.547778 94.4267 2.49438 92.9396 4.98457C92.1736 6.24259 91.5715 8.30138 91.5518 9.64585C91.5106 12.6244 92.7056 14.8494 95.137 16.3208C95.8774 16.7588 96.2767 16.9163 97.7745 17.305C98.9515 17.6204 99.9119 17.8021 100.656 17.85C101.881 17.9386 107.511 17.9713 107.669 17.9C107.785 17.8429 111.914 6.95299 111.854 6.84853C111.836 6.81868 110.028 6.78826 107.847 6.78408C105.199 6.78091 103.809 6.83733 103.665 6.95018C103.273 7.23619 102.184 8.52129 101.226 9.79086C100.482 10.7773 100.315 11.073 100.438 11.1313C100.526 11.18 101.338 11.2085 102.245 11.2119C103.156 11.2036 103.924 11.2076 103.948 11.214C104.03 11.236 103.694 12.3949 103.458 12.8993L103.25 13.348L102.177 13.3506C101.518 13.3632 100.919 13.291 100.619 13.1855C99.5208 12.7651 98.1885 11.1466 97.9372 9.91878C97.7515 9.01124 97.9693 8.01 98.597 6.89153C99.1791 5.84912 99.7331 5.24073 100.445 4.88917C100.94 4.64331 100.967 4.63785 108.178 4.65276L110.147 4.65041L110.931 3.88923C111.778 3.08183 114.09 0.434076 114.149 0.210458C114.168 0.139843 114.149 0.0715351 114.099 0.0706901C114.04 0.0549222 110.797 0.0565352 106.872 0.0643948Z" fill="white"/>
<path d="M87.9601 22.2949C39.6566 22.307 0.160081 22.3578 0.20316 22.4324C0.297933 22.5966 2.64566 23.768 3.94637 24.2806C5.54046 24.9221 8.68918 25.7406 10.3144 25.9364C11.8424 26.1188 12.5338 26.1274 34.296 26.1182C43.0772 26.1122 50.2705 26.1475 50.2878 26.1773C50.3168 26.2103 49.7132 28.1804 48.9608 30.5648C48.1997 32.9342 47.5993 34.8925 47.6079 34.9074C47.6542 34.9703 124.506 34.9508 124.61 34.8905C124.658 34.8529 125.324 32.8868 126.07 30.526C126.831 28.1566 127.482 26.1991 127.53 26.1615C127.586 26.1388 135.841 26.1181 145.896 26.1128C155.948 26.1194 164.707 26.0569 165.37 25.9823C167.993 25.7013 170.909 24.8933 173.503 23.734C175.022 23.0561 176.201 22.3754 175.962 22.3241C175.865 22.3107 136.26 22.2947 87.9601 22.2949ZM123.392 25.4564C123.508 25.7273 123.51 26.0052 123.39 26.4524L123.223 27.0762L122.431 27.0658C121.994 27.0496 121.538 27.0538 121.435 27.0639C121.304 27.0794 121.238 26.9985 121.232 26.8329C121.234 26.6822 121.166 26.5126 121.07 26.4489C120.827 26.2704 117.667 26.2941 117.316 26.4773C116.949 26.6692 116.797 27.2341 117.066 27.4071C117.175 27.474 118.202 27.5474 119.334 27.5605C120.451 27.5823 121.64 27.6614 121.961 27.7348C122.459 27.8555 122.564 27.9341 122.732 28.2945C122.921 28.6731 122.919 28.7735 122.582 29.8437C122.266 30.8817 122.205 31.0166 121.752 31.3873C121.087 31.9406 120.452 32.0482 117.724 32.0614C113.796 32.081 113.349 31.911 113.646 30.4264L113.807 29.637L114.348 29.6431C114.65 29.6482 115.102 29.6558 115.344 29.6451C115.935 29.6521 115.935 29.6521 115.929 30.0037C115.923 30.2164 116.003 30.3389 116.18 30.3862C116.651 30.5124 119.852 30.4746 120.118 30.3313C120.29 30.2514 120.403 30.0671 120.439 29.8372C120.489 29.51 120.455 29.4503 120.099 29.3172C119.882 29.2337 118.769 29.15 117.637 29.1369C116.497 29.1088 115.428 29.0495 115.252 29.0022C114.475 28.794 114.34 27.8371 114.915 26.5404C115.599 25.0209 116.147 24.8144 119.735 24.792C122.44 24.7724 123.162 24.9028 123.392 25.4564ZM112.119 25.4382C112.326 25.7964 112.306 26.6236 112.079 27.1429C111.981 27.3688 111.817 27.4134 110.933 27.4163L109.887 27.4134L109.892 27.112C109.891 26.645 109.53 26.5355 107.939 26.5383C106.234 26.5481 105.72 26.6754 105.337 27.1655C104.989 27.6148 104.432 29.6477 104.579 29.9014C104.742 30.1849 105.535 30.3342 106.708 30.3333C107.568 30.3241 108.747 30.2109 108.784 30.1199C108.784 30.1199 108.914 29.9152 109.075 29.6933C109.351 29.2753 109.389 29.273 110.388 29.2632L111.411 29.2597L111.263 29.8129C111.029 30.6838 110.675 31.1567 109.986 31.5647C109.21 32.0128 108.547 32.0873 105.615 32.0587C103.213 32.0331 102.688 31.9178 102.329 31.3295C102.012 30.8159 102.055 30.2343 102.572 28.6322C103.702 25.075 104.228 24.7616 108.974 24.7971C111.264 24.8179 111.826 24.9308 112.119 25.4382ZM100.812 25.0323C100.79 25.1146 100.279 26.6932 99.6951 28.5424C98.8907 31.0264 98.5655 31.9106 98.4407 31.9528C98.2091 32.0169 96.5515 31.989 96.5201 31.9175C96.5147 31.8908 96.9244 30.55 97.4389 28.9596C97.9564 27.3576 98.4528 25.7876 98.5379 25.4698L98.7074 24.8845L99.6948 24.8716C100.895 24.8652 100.86 24.8557 100.812 25.0323ZM95.9499 25.7603L95.7228 26.6077L94.248 26.6036L92.7646 26.5845L92.2605 28.0893C91.9895 28.9123 91.576 30.126 91.3492 30.7843L90.9357 31.998L90.0551 31.9891C88.7993 31.9679 88.8197 31.986 89.0787 31.349C89.196 31.0525 89.5796 29.856 89.9421 28.6917L90.5835 26.5803L89.2798 26.5968C88.5585 26.6054 87.8937 26.5912 87.8231 26.5723C87.7172 26.5439 87.7363 26.2842 87.8908 25.7075L88.1084 24.8954L88.6524 24.8898C91.9983 24.8781 96.0239 24.8719 96.0945 24.8908C96.1448 24.8917 96.076 25.2895 95.9499 25.7603ZM85.1519 25.4782C85.2584 25.6455 85.3303 25.9422 85.3183 26.1282C85.3181 26.3174 85.3021 26.5654 85.2941 26.6894C85.2661 27.1234 84.1855 30.2145 83.915 30.6592C83.5203 31.285 82.8298 31.7434 82.0408 31.9104C81.6789 31.99 80.3359 32.059 79.0856 32.0646C74.5898 32.0836 74.2565 31.8681 74.9597 29.2435C75.6369 26.7634 76.1868 25.6997 77.0664 25.2416C77.6272 24.9378 78.7434 24.8206 80.9426 24.8044C83.594 24.7958 83.4048 24.7956 84.2467 24.9959C84.8148 25.1355 85.0023 25.2362 85.1519 25.4782ZM73.3489 25.5574C72.9113 25.9195 72.003 26.6727 71.3077 27.2432C70.6125 27.8138 70.0365 28.3154 70.0208 28.3743C70.0082 28.4214 70.4734 29.2272 71.0547 30.165C71.6477 31.106 72.0659 31.8992 72.0062 31.9337C71.9465 31.9682 71.4229 31.9919 70.8586 31.9794C70.2912 31.9787 69.7472 31.9844 69.6436 31.9944C69.5282 32.0014 69.1811 31.5551 68.7032 30.7964C68.3037 30.1217 67.9347 29.5687 67.8876 29.5561C67.8523 29.5466 67.161 30.0552 66.3613 30.6861C65.5466 31.3255 64.8458 31.8694 64.783 31.9156C64.7351 31.9533 64.0844 31.9807 63.3395 31.983L61.9888 31.9869L62.2975 31.729C62.4711 31.5989 63.4956 30.7886 64.5946 29.9352L66.5979 28.3906L65.5333 26.6673C64.8174 25.4789 64.5339 24.9362 64.6674 24.9089C64.7624 24.8839 65.3715 24.8705 66.0245 24.8815L67.2065 24.8955L67.8392 26.112C68.1916 26.7741 68.5104 27.3262 68.5574 27.3388C68.5927 27.3483 69.3084 26.7958 70.1326 26.121C71.4965 24.9854 71.6755 24.882 72.1425 24.881C72.429 24.8947 72.9109 24.885 73.2304 24.8697C74.1558 24.8528 74.1581 24.8912 73.3489 25.5574ZM61.8157 25.7595C61.5897 26.3675 61.456 26.5839 61.3053 26.5814C61.1899 26.5883 59.993 26.583 58.6422 26.5868C57.2946 26.5789 56.1 26.6121 56.0136 26.652C55.9123 26.7005 55.7723 26.9405 55.7061 27.1877C55.6273 27.4819 55.642 27.6625 55.7361 27.6877C55.8099 27.6948 56.9919 27.7088 58.3427 27.7049L60.8017 27.7079L60.6667 28.3529C60.5956 28.7123 60.4688 29.0441 60.3942 29.0872C60.3196 29.1303 59.1603 29.1728 57.8127 29.1649C56.4619 29.1688 55.2822 29.1933 55.199 29.2215C54.9258 29.2996 54.7245 30.1918 54.9599 30.2549C55.0541 30.2801 56.2981 30.2981 57.7109 30.2982C59.1119 30.2951 60.297 30.2974 60.3441 30.31C60.3794 30.3194 60.317 30.6937 60.194 31.1527L59.9764 31.9648L59.4442 31.9736C59.1428 31.9685 57.3871 31.9774 55.5308 31.9846L52.1496 31.9868L52.401 31.0955C52.5452 30.6044 53.0361 29.0077 53.5159 27.5469L54.3675 24.8864L58.2157 24.8832C60.3349 24.8833 62.0726 24.8948 62.093 24.9129C62.1016 24.9278 61.974 25.3099 61.8157 25.7595Z" fill="white"/>
<path d="M80.4402 26.537C78.1491 26.5664 77.8444 26.7623 77.3438 28.5833C76.9874 29.9133 77.0234 30.0617 77.7743 30.225C78.4397 30.3781 80.9466 30.3434 81.3989 30.1619C82.0263 29.9389 82.3479 29.4449 82.6633 28.2679C83.1016 26.632 82.9558 26.5172 80.4402 26.537Z" fill="white"/>
<path d="M87.1858 0.0882182C86.3382 0.0503145 72.0245 0.0371048 71.9381 0.07703C71.8666 0.108339 65.4032 17.8278 65.4376 17.8875C65.4689 17.9589 71.726 17.9578 71.8453 17.8888C71.8901 17.863 72.4396 16.4713 73.0499 14.8057C73.9082 12.4498 74.1947 11.7571 74.3581 11.7125C74.5096 11.6648 75.4654 12.476 77.9742 14.7881L81.3941 17.9372L84.7604 17.9435C86.6252 17.9513 88.2452 17.9312 88.3755 17.9157C88.5443 17.8978 87.7989 17.0548 85.3437 14.5426L82.0779 11.1951L83.6746 10.9796C85.612 10.7167 86.7709 10.346 87.9946 9.63953C89.7767 8.59072 90.6285 7.15385 90.6198 5.20892C90.6009 1.93676 89.4218 0.170167 87.1858 0.0882182ZM84.0332 5.12176C84.1456 5.64384 83.862 6.51393 83.54 6.67993C83.394 6.75432 82.113 6.82735 80.7002 6.82723C79.2874 6.82711 78.0371 6.83267 77.9249 6.82783C77.8213 6.83791 77.1102 7.46731 76.3644 8.22618C75.6038 8.99366 74.9759 9.59491 74.9673 9.57998C74.9329 9.52029 76.7141 4.6617 76.7855 4.63039C76.9316 4.556 83.4389 4.60931 83.6829 4.68731C83.8563 4.74638 83.9864 4.92 84.0332 5.12176Z" fill="white"/>
<path d="M60.3256 0.0569573C55.1533 0.0586147 50.9119 0.0700199 50.8969 0.0786357C50.8074 0.13033 44.6115 17.2277 44.5585 17.5667L44.4961 17.941L52.1274 17.9423C56.3304 17.9332 60.1253 17.9409 60.5687 17.9335C61.3489 17.9407 61.3787 17.9235 62.1291 17.2416C63.2574 16.232 64.5196 14.8168 64.9514 14.1C65.1582 13.7517 65.3171 13.4411 65.2999 13.4113C65.2827 13.3814 62.5168 13.3467 59.1591 13.3552C55.7928 13.3489 52.917 13.3478 52.7663 13.3452C52.5002 13.3496 52.4948 13.3229 52.7176 12.7267C53.2003 11.4432 53.2247 11.3993 53.6713 11.3802C53.8989 11.3781 55.3917 11.3619 57.0054 11.3654L59.9283 11.3791L62.2982 9.1254C63.6135 7.88844 64.6861 6.85133 64.6924 6.8278C64.705 6.78072 57.4018 6.77904 57.0878 6.82105C56.9693 6.83974 56.1687 7.52084 55.3184 8.34002L53.7862 9.82159L54.0302 9.1932C54.1601 8.84958 54.5846 7.68926 54.972 6.61994C55.3712 5.55378 55.6964 4.66961 55.7231 4.66415C55.738 4.65554 58.0997 4.64502 60.9755 4.64611C65.7193 4.64315 66.2428 4.61945 66.5688 4.39144C67.257 3.89465 69.8548 0.743355 69.9967 0.213735C70.0124 0.154888 69.9544 0.0888894 69.8807 0.0817373C69.7983 0.0596622 65.498 0.0552998 60.3256 0.0569573Z" fill="white"/>
<path d="M145.124 28.6691L129.291 28.6776L128.947 29.8215C128.628 30.8713 128.629 30.96 128.833 30.9516C128.96 30.9478 134.588 30.942 141.335 30.9461C148.083 30.9503 154.086 30.9065 154.667 30.8601C156.452 30.695 159.043 29.8756 160.482 29.0249C160.801 28.8205 161.046 28.6591 161.02 28.6645C160.984 28.6551 153.832 28.6559 145.124 28.6691Z" fill="white"/>
<path d="M45.5938 0.0569264C43.9802 0.053425 42.6231 0.0808409 42.6082 0.0894567C42.5783 0.106688 41.7578 2.3214 40.7727 5.0092C39.7994 7.70016 38.9821 9.9031 38.9671 9.91172C38.9491 9.9321 38.5075 7.7198 37.9943 5.02157C37.4842 2.31158 37.0308 0.0961233 36.9955 0.0866625C36.8307 0.0425124 29.2198 0.059303 29.033 0.0975381C28.8697 0.14208 28.2146 1.83348 25.6207 8.97195C23.8513 13.8337 22.4274 17.8293 22.4415 17.871C22.4932 17.9605 28.6764 17.9522 28.8257 17.866C28.8854 17.8316 29.7176 15.62 30.6783 12.9761C31.6422 10.3205 32.4383 8.14971 32.4682 8.13248C32.4862 8.11209 32.9106 10.2945 33.4097 12.9512C33.9057 15.6195 34.3442 17.8436 34.3732 17.8766C34.4225 17.9277 42.4227 17.9647 42.5123 17.913C42.557 17.8872 48.7606 0.855009 48.8647 0.466621C48.9278 0.231235 48.8942 0.121312 48.7498 0.0952385C48.6321 0.0637026 47.2107 0.0486584 45.5938 0.0569264Z" fill="white"/>
<path d="M17.4159 0.0495998C12.2287 0.059873 7.94242 0.0971256 7.8945 0.134742C7.80496 0.186437 1.33143 17.8022 1.38312 17.8918C1.42851 18.0049 18.1613 17.9346 18.4055 17.8235C19.2011 17.4438 22.3464 13.8967 22.2771 13.4493C22.2693 13.3841 19.3912 13.3446 15.871 13.3474L9.46334 13.346L9.70741 12.7177C9.84047 12.3623 10.0105 11.9159 10.0995 11.7253L10.2443 11.373L16.8647 11.3809L19.2581 9.13358C20.5735 7.89662 21.6311 6.86813 21.6139 6.83829C21.6085 6.8116 19.8857 6.79148 17.805 6.78899C15.7211 6.79827 13.9952 6.78992 13.9717 6.78362C13.9364 6.77416 13.2425 7.43341 12.4041 8.25573C11.5688 9.06629 10.8781 9.71377 10.8577 9.6957C10.8092 9.59439 12.6375 4.74841 12.7537 4.69126C12.8134 4.65679 15.1633 4.64312 17.9739 4.65198C22.7883 4.66795 23.1078 4.65263 23.4966 4.37839C24.5068 3.7156 27.3633 0.116448 26.9388 0.0531499C26.8917 0.0405356 22.6 0.0510959 17.4159 0.0495998Z" fill="white"/>
<path d="M31.346 28.657C22.9816 28.6611 15.9146 28.6723 15.6336 28.6853L15.125 28.7004L15.9446 29.1723C16.9988 29.7575 20.1536 30.7416 21.3724 30.8537C22.2961 30.9372 45.8689 30.9968 46.033 30.9021C46.0896 30.8794 46.3139 30.3718 46.5218 29.7842C46.8682 28.8679 46.8943 28.7235 46.7264 28.6911C46.6322 28.6659 39.7104 28.6529 31.346 28.657Z" fill="white"/>
</g>
<defs>
<clipPath id="clip0_14594_44488">
<rect width="185.235" height="35" fill="white"/>
</clipPath>
</defs>
</svg>
