<svg width="507" height="96" viewBox="0 0 507 96" fill="none" xmlns="http://www.w3.org/2000/svg">
<path d="M494.776 0.130379C488.525 0.146516 479.687 0.159556 475.191 0.197118C470.703 0.202483 466.059 0.407348 464.899 0.614237C462.165 1.1585 457.449 3.69083 454.665 6.22333C448.739 11.4683 444.921 19.2795 444.811 26.2556C444.67 36.5705 449.824 43.6109 459.98 46.919C464.492 48.3694 468.388 48.8958 476.116 49.0339L482.607 49.1512L484.066 47.9548C486.656 45.888 493.664 37.3785 493.31 36.7661C493.24 36.6437 488.164 36.5259 482.019 36.5358C473.043 36.5465 470.587 36.4405 469.535 35.9862C466.612 34.7888 462.929 30.2474 462.263 27.0666C461.259 22.3115 465.369 14.958 470.082 13.0806C470.742 12.8087 494.705 12.5003 495.606 12.7418C495.832 12.8022 500.875 7.63137 502.888 5.27187C506.485 0.990388 507.023 0.271723 506.564 0.183139C506.338 0.122748 501.058 0.122869 494.776 0.130379Z" fill="black"/>
<path d="M438.695 0.149016C434.239 0.163007 430.568 0.214439 430.486 0.26158C430.2 0.426571 412.856 48.5437 412.997 48.7886C413.138 49.0336 429.897 49.2104 430.337 48.9833C430.428 48.904 434.29 38.4818 438.902 25.776C443.506 13.1023 447.498 2.19724 447.776 1.54697C448.189 0.518962 448.159 0.372917 447.539 0.241196C447.144 0.169866 443.159 0.102827 438.695 0.149016Z" fill="black"/>
<path d="M402.392 0.152236C386.892 0.174478 379.466 0.324483 378.871 0.613641C378.39 0.864286 376.251 3.05186 374.099 5.54647C369.96 10.304 368.628 12.0523 368.896 12.4692C368.967 12.5917 372.797 12.7208 377.422 12.7178C382.048 12.7147 385.839 12.73 385.863 12.7708C385.887 12.8116 382.961 20.8966 379.368 30.7007C375.798 40.5456 372.928 48.68 372.999 48.8024C373.188 49.129 389.706 49.1724 390.277 48.8425C390.531 48.6688 393.322 41.3417 397.138 30.8379C400.682 21.0896 403.712 12.9983 403.876 12.904C404.039 12.8097 406.547 12.7226 409.474 12.7475C414.131 12.7531 414.917 12.6531 415.955 11.9995C417.427 11.0135 422.034 5.79494 423.983 2.90072C425.543 0.557853 425.702 0.220934 425.339 0.158232C425.178 0.115095 414.893 0.119962 402.392 0.152236Z" fill="black"/>
<path d="M344.143 0.143253C329.993 0.147787 318.308 0.22613 318.145 0.320411C317.818 0.508972 300.73 47.2801 300.583 48.3449C300.481 49.1113 300.069 49.1044 340.215 49.0601L346.805 49.0659L349.154 46.8657C352.785 43.4903 355.249 40.7342 356.456 38.6764C357.039 37.6594 357.491 36.7452 357.444 36.6636C357.397 36.5819 349.652 36.5082 340.256 36.5442C330.868 36.548 323.01 36.5128 322.808 36.4933C322.583 36.4329 322.807 35.5957 323.451 33.8358C323.959 32.4536 324.457 31.2411 324.571 31.2026C324.652 31.1554 328.704 31.1023 333.595 31.1361C338.463 31.129 342.629 31.0374 342.801 30.9109C343.74 30.3688 355.649 18.8934 355.449 18.7364C355.241 18.6116 351.87 18.5711 335.755 18.5668C334.647 18.5805 334.132 18.96 330.359 22.6078C328.065 24.8575 326.176 26.6288 326.152 26.588C326.043 26.3517 331.111 12.9743 331.348 12.8651C331.511 12.7708 337.916 12.6926 345.573 12.7082C353.472 12.7198 359.871 12.5363 360.376 12.3265C361.468 11.8597 365.611 7.34486 368.176 3.82224C370.071 1.25862 370.581 0.256493 370.113 0.200106C369.952 0.156969 358.293 0.138718 344.143 0.143253Z" fill="black"/>
<path d="M292.368 0.177003C281.639 0.166307 272.144 0.313833 271.235 0.484521C265.235 1.4994 258.321 6.82475 254.252 13.6372C252.157 17.0788 250.51 22.711 250.456 26.3891C250.343 34.5376 253.612 40.6245 260.264 44.6498C262.289 45.8482 263.382 46.279 267.48 47.3425C270.699 48.2052 273.327 48.7022 275.362 48.8335C278.714 49.0758 294.115 49.1651 294.547 48.9702C294.865 48.8139 306.161 19.0222 305.996 18.7365C305.949 18.6548 301.002 18.5716 295.035 18.5601C287.79 18.5515 283.987 18.7058 283.594 19.0145C282.521 19.797 279.543 23.3127 276.922 26.7858C274.887 29.4846 274.429 30.2935 274.766 30.4528C275.006 30.5862 277.228 30.664 279.711 30.6734C282.201 30.6506 284.303 30.6617 284.368 30.679C284.593 30.7394 283.675 33.9097 283.029 35.2896L282.458 36.5171L279.523 36.5243C277.72 36.5586 276.081 36.3613 275.262 36.0726C272.257 34.9224 268.612 30.4948 267.925 27.1358C267.417 24.653 268.012 21.9139 269.73 18.8541C271.322 16.0024 272.838 14.338 274.786 13.3762C276.14 12.7036 276.213 12.6887 295.941 12.7295L301.326 12.723L303.472 10.6407C305.789 8.43184 312.113 1.18834 312.277 0.576591C312.328 0.383406 312.275 0.196537 312.137 0.194225C311.976 0.151088 303.106 0.155501 292.368 0.177003Z" fill="black"/>
<path d="M240.633 60.9922C108.488 61.0251 0.436933 61.1642 0.554784 61.3683C0.814056 61.8174 7.23676 65.0222 10.7951 66.4243C15.1561 68.1795 23.7701 70.4186 28.2163 70.9543C32.3963 71.4531 34.2879 71.4769 93.8231 71.4515C117.846 71.4352 137.525 71.5317 137.572 71.6134C137.651 71.7037 136 77.0933 133.942 83.6161C131.86 90.0981 130.217 95.4556 130.241 95.4964C130.367 95.6683 340.612 95.6151 340.897 95.4501C341.028 95.3472 342.849 89.9685 344.89 83.51C346.972 77.028 348.752 71.6729 348.883 71.57C349.038 71.5079 371.622 71.4512 399.13 71.4369C426.629 71.4548 450.59 71.2838 452.404 71.0798C459.581 70.3111 467.558 68.1005 474.654 64.929C478.809 63.0745 482.035 61.2124 481.382 61.0721C481.116 61.0353 372.769 60.9915 240.633 60.9922ZM337.564 69.6412C337.883 70.3823 337.886 71.1424 337.558 72.3659L337.101 74.0724L334.934 74.044C333.739 73.9997 332.493 74.0111 332.21 74.0386C331.853 74.0812 331.671 73.8598 331.654 73.4067C331.661 72.9944 331.475 72.5304 331.211 72.3562C330.548 71.868 321.904 71.9328 320.941 72.4341C319.938 72.9589 319.524 74.5044 320.259 74.9777C320.556 75.1606 323.366 75.3615 326.462 75.3974C329.518 75.4569 332.772 75.6733 333.65 75.8741C335.011 76.2042 335.299 76.4193 335.759 77.4054C336.275 78.441 336.271 78.7158 335.348 81.6435C334.484 84.4831 334.316 84.8523 333.078 85.8664C331.258 87.3801 329.522 87.6744 322.059 87.7105C311.312 87.7642 310.091 87.299 310.903 83.2375L311.343 81.0779L312.823 81.0947C313.647 81.1086 314.884 81.1294 315.548 81.1001C317.164 81.1192 317.164 81.1192 317.148 82.0812C317.13 82.663 317.351 82.9983 317.834 83.1277C319.122 83.4728 327.881 83.3694 328.607 82.9774C329.079 82.7589 329.387 82.2547 329.487 81.6257C329.623 80.7305 329.529 80.5672 328.556 80.2031C327.962 79.9748 324.917 79.7457 321.821 79.7098C318.701 79.6331 315.777 79.4707 315.294 79.3413C313.169 78.7719 312.801 76.154 314.373 72.6066C316.246 68.4497 317.743 67.8847 327.56 67.8234C334.959 67.77 336.934 68.1266 337.564 69.6412ZM306.726 69.5914C307.291 70.5712 307.237 72.8342 306.615 74.2549C306.346 74.873 305.899 74.9948 303.481 75.0027L300.619 74.995L300.633 74.1705C300.63 72.8929 299.641 72.5932 295.29 72.6009C290.625 72.6275 289.22 72.9759 288.17 74.3166C287.22 75.5458 285.695 81.1073 286.096 81.8014C286.544 82.577 288.712 82.9854 291.922 82.9828C294.275 82.9577 297.499 82.6481 297.6 82.3992C297.6 82.3992 297.957 81.8392 298.396 81.232C299.151 80.0885 299.256 80.0822 301.989 80.0554L304.787 80.0459L304.382 81.5591C303.743 83.9418 302.775 85.2354 300.889 86.3518C298.766 87.5774 296.951 87.7814 288.932 87.7031C282.359 87.6329 280.925 87.3177 279.942 85.7083C279.076 84.303 279.192 82.7121 280.608 78.3292C283.698 68.5976 285.136 67.7404 298.12 67.8375C304.385 67.8944 305.924 68.2033 306.726 69.5914ZM275.792 68.4807C275.732 68.7061 274.333 73.0246 272.736 78.0836C270.536 84.879 269.646 87.2978 269.305 87.4133C268.671 87.5887 264.136 87.5124 264.051 87.3169C264.036 87.2438 265.157 83.5756 266.564 79.225C267.98 74.8421 269.338 70.5472 269.571 69.6779L270.034 68.0766L272.735 68.0412C276.018 68.0237 275.922 67.9978 275.792 68.4807ZM262.49 70.4724L261.869 72.7907L257.835 72.7794L253.777 72.7273L252.397 76.844C251.656 79.0955 250.525 82.4158 249.904 84.2166L248.773 87.5369L246.364 87.5126C242.928 87.4548 242.984 87.5042 243.693 85.7616C244.014 84.9503 245.063 81.6771 246.055 78.4918L247.809 72.7159L244.243 72.761C242.27 72.7844 240.451 72.7457 240.258 72.6939C239.968 72.6163 240.02 71.9056 240.443 70.328L241.038 68.1063L242.527 68.0909C251.68 68.0589 262.693 68.0421 262.886 68.0938C263.024 68.0961 262.835 69.1845 262.49 70.4724ZM232.95 69.7006C233.242 70.1583 233.438 70.9702 233.405 71.479C233.405 71.9965 233.361 72.6749 233.339 73.0142C233.263 74.2015 230.307 82.6579 229.566 83.8744C228.487 85.5866 226.598 86.8405 224.439 87.2974C223.449 87.5152 219.775 87.704 216.355 87.7193C204.055 87.7711 203.143 87.1817 205.067 80.0016C206.92 73.2166 208.424 70.3068 210.831 69.0536C212.365 68.2223 215.418 67.9017 221.435 67.8574C228.688 67.8339 228.171 67.8333 230.474 68.3814C232.028 68.7633 232.541 69.0388 232.95 69.7006ZM200.661 69.9175C199.463 70.908 196.979 72.9685 195.077 74.5294C193.174 76.0903 191.599 77.4626 191.556 77.6236C191.521 77.7524 192.794 79.9569 194.384 82.5225C196.007 85.0968 197.151 87.2668 196.987 87.3611C196.824 87.4554 195.392 87.5203 193.848 87.4862C192.296 87.4843 190.808 87.4997 190.524 87.5273C190.208 87.5463 189.259 86.3255 187.951 84.2498C186.858 82.404 185.849 80.8912 185.72 80.8567C185.624 80.8308 183.732 82.2221 181.544 83.9479C179.316 85.6974 177.399 87.1852 177.227 87.3117C177.096 87.4146 175.316 87.4898 173.278 87.4959L169.583 87.5065L170.427 86.8011C170.902 86.4453 173.705 84.2284 176.711 81.8937L182.192 77.6682L179.279 72.9538C177.321 69.7027 176.545 68.2181 176.91 68.1434C177.17 68.075 178.837 68.0383 180.623 68.0684L183.857 68.1066L185.588 71.4347C186.552 73.2459 187.424 74.7564 187.553 74.7909C187.649 74.8168 189.607 73.3054 191.862 71.4593C195.593 68.3525 196.083 68.0697 197.36 68.0669C198.144 68.1044 199.462 68.078 200.336 68.0361C202.868 67.9898 202.874 68.095 200.661 69.9175ZM169.109 70.4702C168.491 72.1335 168.125 72.7257 167.713 72.7188C167.397 72.7377 164.123 72.723 160.427 72.7337C156.741 72.7121 153.473 72.8026 153.236 72.9118C152.959 73.0446 152.576 73.7012 152.395 74.3774C152.179 75.1823 152.219 75.6762 152.477 75.7452C152.679 75.7648 155.912 75.803 159.608 75.7924L166.335 75.8005L165.966 77.565C165.771 78.5482 165.424 79.456 165.22 79.5739C165.016 79.6917 161.845 79.8082 158.158 79.7866C154.463 79.7972 151.235 79.8642 151.008 79.9412C150.26 80.1551 149.71 82.5958 150.354 82.7683C150.611 82.8373 154.014 82.8865 157.879 82.8868C161.712 82.8785 164.954 82.8845 165.083 82.9191C165.18 82.9449 165.009 83.9689 164.672 85.2246L164.077 87.4463L162.621 87.4703C161.797 87.4564 156.994 87.4807 151.915 87.5004L142.665 87.5065L143.353 85.0681C143.748 83.7245 145.091 79.3566 146.403 75.3601L148.733 68.0817L159.261 68.0729C165.058 68.0733 169.812 68.1048 169.868 68.1543C169.891 68.1951 169.542 69.2403 169.109 70.4702Z" fill="black"/>
<path d="M220.062 72.5967C213.794 72.6773 212.96 73.2131 211.591 78.1951C210.616 81.8334 210.714 82.2393 212.768 82.6863C214.589 83.105 221.447 83.0101 222.684 82.5135C224.401 81.9036 225.281 80.5519 226.143 77.3321C227.342 72.8567 226.943 72.5427 220.062 72.5967Z" fill="black"/>
<path d="M238.517 0.241605C236.198 0.137911 197.04 0.101773 196.803 0.210997C196.608 0.296651 178.926 48.7719 179.02 48.9352C179.106 49.1307 196.223 49.1276 196.55 48.939C196.672 48.8683 198.175 45.061 199.845 40.5045C202.193 34.0593 202.977 32.1643 203.424 32.0424C203.838 31.9119 206.453 34.131 213.316 40.4562L222.672 49.0712L231.881 49.0887C236.983 49.1098 241.415 49.055 241.771 49.0125C242.233 48.9636 240.194 46.6573 233.477 39.7847L224.543 30.6269L228.911 30.0374C234.211 29.318 237.382 28.304 240.729 26.3713C245.605 23.502 247.935 19.5711 247.911 14.2504C247.86 5.29869 244.634 0.465793 238.517 0.241605ZM229.892 14.0119C230.2 15.4402 229.424 17.8205 228.543 18.2747C228.143 18.4782 224.639 18.6779 220.774 18.6776C216.909 18.6773 213.488 18.6925 213.181 18.6793C212.898 18.7068 210.953 20.4287 208.913 22.5047C206.832 24.6043 205.114 26.2492 205.09 26.2084C204.996 26.0451 209.869 12.7533 210.064 12.6677C210.464 12.4642 228.266 12.61 228.934 12.8234C229.408 12.985 229.764 13.46 229.892 14.0119Z" fill="black"/>
<path d="M165.036 0.15321C150.886 0.157744 139.282 0.188946 139.241 0.212516C138.996 0.353937 122.046 47.1274 121.901 48.0548L121.73 49.0788L142.608 49.0823C154.106 49.0574 164.487 49.0784 165.701 49.0584C167.835 49.0781 167.917 49.031 169.969 47.1654C173.056 44.4035 176.509 40.532 177.69 38.5709C178.256 37.6182 178.691 36.7684 178.644 36.6868C178.597 36.6051 171.03 36.5102 161.844 36.5335C152.635 36.5161 144.768 36.5131 144.355 36.5062C143.628 36.5182 143.613 36.4451 144.222 34.814C145.543 31.3028 145.609 31.1826 146.831 31.1304C147.454 31.1247 151.538 31.0802 155.952 31.0898L163.949 31.1273L170.432 24.9619C174.03 21.5779 176.965 18.7407 176.982 18.6763C177.016 18.5475 157.037 18.5429 156.178 18.6578C155.853 18.709 153.663 20.5723 151.337 22.8133L147.145 26.8665L147.813 25.1474C148.169 24.2073 149.33 21.033 150.39 18.1077C151.482 15.1909 152.371 12.7721 152.444 12.7572C152.485 12.7336 158.946 12.7048 166.813 12.7078C179.791 12.6997 181.223 12.6349 182.115 12.0111C183.998 10.652 191.105 2.031 191.493 0.582109C191.536 0.421121 191.377 0.240567 191.175 0.221001C190.95 0.16061 179.186 0.148676 165.036 0.15321Z" fill="black"/>
<path d="M397.014 78.4281L353.699 78.4514L352.757 81.5809C351.884 84.4528 351.888 84.6954 352.446 84.6725C352.794 84.6622 368.189 84.6462 386.649 84.6576C405.108 84.669 421.532 84.549 423.119 84.4221C428.002 83.9706 435.091 81.7288 439.027 79.4017C439.902 78.8423 440.572 78.4008 440.499 78.4158C440.403 78.3899 420.835 78.3922 397.014 78.4281Z" fill="black"/>
<path d="M124.729 0.154562C120.314 0.144984 116.602 0.219986 116.561 0.243556C116.479 0.290696 114.235 6.34953 111.54 13.7026C108.877 21.0643 106.641 27.0909 106.6 27.1145C106.551 27.1702 105.343 21.118 103.939 13.7364C102.543 6.32265 101.303 0.261794 101.207 0.235912C100.756 0.11513 79.9344 0.161064 79.4232 0.265665C78.9765 0.38752 77.1845 5.01472 70.0883 24.5435C65.2476 37.8439 61.3524 48.7748 61.3909 48.8887C61.5323 49.1336 78.4479 49.1109 78.8562 48.8752C79.0195 48.7809 81.2963 42.7307 83.9245 35.4979C86.5614 28.2328 88.7393 22.2941 88.8209 22.247C88.8704 22.1912 90.0313 28.1618 91.3968 35.4295C92.7537 42.7294 93.9531 48.8139 94.0325 48.9041C94.1676 49.0439 116.054 49.1452 116.299 49.0038C116.421 48.9331 133.393 2.33789 133.677 1.27537C133.85 0.63142 133.758 0.330703 133.363 0.259373C133.041 0.1731 129.152 0.131944 124.729 0.154562Z" fill="black"/>
<path d="M47.6393 0.13636C33.4485 0.164465 21.7226 0.266378 21.5914 0.369286C21.3465 0.510707 3.63676 48.7025 3.77819 48.9475C3.90235 49.2568 49.6785 49.0647 50.3467 48.7606C52.523 47.7218 61.1277 38.0182 60.938 36.7941C60.9168 36.6158 53.0432 36.5076 43.413 36.5154L25.8834 36.5116L26.5511 34.7925C26.9151 33.8203 27.3803 32.5991 27.6236 32.0776L28.0198 31.114L46.1314 31.1357L52.6791 24.9875C56.2775 21.6036 59.171 18.7899 59.1239 18.7083C59.1089 18.6352 54.3959 18.5802 48.7037 18.5734C43.0029 18.5988 38.2812 18.576 38.2168 18.5587C38.1203 18.5328 36.2221 20.3363 33.9284 22.586C31.6433 24.8035 29.7538 26.5748 29.698 26.5253C29.5652 26.2482 34.5668 12.991 34.8848 12.8346C35.0481 12.7403 41.4768 12.7029 49.1659 12.7272C62.3367 12.7708 63.2107 12.7289 64.2744 11.9787C67.0379 10.1655 74.8526 0.319238 73.6911 0.146073C73.5623 0.111563 61.8215 0.140453 47.6393 0.13636Z" fill="black"/>
<path d="M85.7511 78.3985C62.8685 78.4098 43.5352 78.4403 42.7664 78.4759L41.375 78.5172L43.6173 79.8082C46.5012 81.4092 55.1318 84.1013 58.466 84.4081C60.993 84.6366 125.482 84.7996 125.931 84.5404C126.085 84.4783 126.699 83.0898 127.268 81.4822C128.215 78.9754 128.287 78.5804 127.827 78.4918C127.57 78.4228 108.634 78.3873 85.7511 78.3985Z" fill="black"/>
</svg>
